<svg width="45" height="42" viewBox="0 0 45 42" fill="none" xmlns="http://www.w3.org/2000/svg">
<path d="M28.8625 1.78694L27.6711 4.38391C27.4933 4.77143 27.208 5.09978 26.8491 5.32997C26.4902 5.56016 26.0728 5.68253 25.6464 5.68253H5.238C4.00781 5.68253 3.0105 6.67984 3.0105 7.91003V31.2723C3.0105 32.5024 4.00781 33.4998 5.238 33.4998H42.7004C43.9306 33.4998 44.9279 32.5024 44.9279 31.2723V2.71581C44.9279 1.48562 43.9306 0.488312 42.7004 0.488312H30.8872C30.4608 0.488316 30.0434 0.610679 29.6845 0.840873C29.3256 1.07107 29.0403 1.39942 28.8625 1.78694Z" fill="#948E8C"/>
<path d="M42.903 34.9992V16.8601C42.903 15.6299 41.9057 14.6326 40.6755 14.6326H20.267C19.8406 14.6326 19.4232 14.5102 19.0643 14.28C18.7054 14.0498 18.4201 13.7215 18.2423 13.3339L17.0509 10.737C16.8731 10.3494 16.5878 10.0211 16.2289 9.7909C15.87 9.56071 15.4526 9.43834 15.0262 9.43834H3.2131C1.98291 9.43834 0.985596 10.4357 0.985596 11.6658V39.2841C0.985596 40.5143 1.98291 41.5116 3.2131 41.5116H40.6755C40.8053 41.5116 40.9325 41.4999 41.0562 41.4785C41.2099 41.4998 41.3665 41.5116 41.5261 41.5116C43.4048 41.5116 44.9278 39.9887 44.9278 38.1099C44.9278 36.7213 44.0955 35.5278 42.903 34.9992Z" fill="#566885"/>
<path d="M42.9028 27.7506V37.7227H42.9069C42.9069 38.2807 43.3592 38.7331 43.9172 38.7331C44.4752 38.7331 44.9275 38.2807 44.9275 37.7227V27.7506H42.9028Z" fill="#948E8C"/>
</svg>
