<svg width="32" height="42" viewBox="0 0 32 42" fill="none" xmlns="http://www.w3.org/2000/svg">
<path d="M32 39C32 40.6569 30.6569 42 29 42H3C1.34315 42 0 40.6569 0 39V3C0 1.34315 1.34315 0 3 0H20.7574C21.553 0 22.3161 0.316071 22.8787 0.87868L31.1213 9.12132C31.6839 9.68393 32 10.447 32 11.2426V39Z" fill="#566885"/>
<path d="M28.7929 9.29289C29.4229 9.92286 28.9767 11 28.0858 11H22C21.4477 11 21 10.5523 21 10V3.91421C21 3.02331 22.0771 2.57714 22.7071 3.20711L28.7929 9.29289Z" fill="#948E8C"/>
</svg>
